Coordinates
version=1
nRows=12
nColumns=24
inDegrees=yes

Units are S.I. units (second, meters, Newtons, ...)
Angles are in degrees.

endheader
time	pelvis_tilt	pelvis_list	pelvis_rotation	pelvis_tx	pelvis_ty	pelvis_tz	hip_flexion_r	hip_adduction_r	hip_rotation_r	knee_angle_r	ankle_angle_r	subtalar_angle_r	mtp_angle_r	hip_flexion_l	hip_adduction_l	hip_rotation_l	knee_angle_l	ankle_angle_l	subtalar_angle_l	mtp_angle_l	lumbar_extension	lumbar_bending	lumbar_rotation
      7.86000000	      5.50344066	     -1.68780224	      1.13030221	     -0.05508468	      0.94692200	      0.18899449	     -5.84719526	      7.19733554	     -0.46019265	     -4.70271641	     11.57065617	     -1.11674113	      0.00000000	     12.33972522	     -0.84938332	     -1.93401792	    -38.71363188	      7.65336012	     -5.39951155	      0.00000000	    -23.08452527	      1.65625063	      2.31499940
      7.87000000	      5.40024136	     -1.74911578	      1.04610733	     -0.04706944	      0.94649963	      0.18848995	     -6.37728440	      7.23242616	     -0.36275169	     -4.52507183	     11.89688130	     -1.06960919	      0.00000000	     12.72904305	     -0.82172741	     -1.76263434	    -36.17051871	      7.88601896	     -5.20049574	      0.00000000	    -23.10644904	      1.72409239	      2.48744388
      7.88000000	      5.29151102	     -1.84694168	      0.94371427	     -0.03899405	      0.94594125	      0.18798673	     -6.89856851	      7.29913563	     -0.27566286	     -4.35636845	     12.25410240	     -0.99691240	      0.00000000	     13.06618840	     -0.84134859	     -1.61130196	    -33.52342984	      8.05092793	     -4.86723739	      0.00000000	    -23.09070773	      1.82408523	      2.68408491
      7.89000000	      5.16772759	     -1.96963795	      0.81656375	     -0.03089531	      0.94525462	      0.18745340	     -7.37713248	      7.37935783	     -0.16245777	     -4.24462250	     12.61515066	     -0.91472230	      0.00000000	     13.35943106	     -0.88310387	     -1.44312442	    -30.77990067	      8.13943046	     -4.43608394	      0.00000000	    -23.04661072	      1.95172827	      2.90294207
      7.90000000	      5.07773712	     -2.13438795	      0.66173635	     -0.02272065	      0.94451115	      0.18694661	     -7.89613013	      7.49461695	     -0.02456683	     -4.13621531	     12.99851140	     -0.78724363	      0.00000000	     13.56083048	     -0.98530420	     -1.29691446	    -27.97232085	      8.12007014	     -3.90923238	      0.00000000	    -23.01857717	      2.11515294	      3.18366946
      7.91000000	      4.99188273	     -2.33254950	      0.48748515	     -0.01449940	      0.94367759	      0.18643517	     -8.40827551	      7.63455763	      0.13239734	     -4.05871932	     13.38064490	     -0.63712032	      0.00000000	     13.70673598	     -1.13232548	     -1.15780708	    -25.12129006	      8.02399415	     -3.36025506	      0.00000000	    -22.98333552	      2.30711008	      3.49813949
      7.92000000	      4.90924924	     -2.55944430	      0.29217023	     -0.00622592	      0.94276487	      0.18593813	     -8.91431708	      7.79570122	      0.31910026	     -4.01172667	     13.75909329	     -0.47622894	      0.00000000	     13.80223560	     -1.32321081	     -1.03573797	    -22.25445184	      7.85605938	     -2.84217425	      0.00000000	    -22.93984052	      2.51827168	      3.84708349
      7.93000000	      4.83080542	     -2.81215653	      0.08554355	      0.00210431	      0.94178199	      0.18542968	     -9.41906836	      7.97669860	      0.52689927	     -3.98990966	     14.11832206	     -0.31615868	      0.00000000	     13.85447982	     -1.55367229	     -0.94163128	    -19.40573841	      7.63536082	     -2.39797307	      0.00000000	    -22.89515665	      2.75511397	      4.22299824
      7.94000000	      4.76581665	     -3.08359555	     -0.13290612	      0.01048392	      0.94075299	      0.18492340	     -9.93491225	      8.17131656	      0.75247746	     -3.98693350	     14.46654676	     -0.15882534	      0.00000000	     13.85695860	     -1.82042432	     -0.91283173	    -16.59743897	      7.38408754	     -2.05506726	      0.00000000	    -22.86086029	      3.00018383	      4.61971718
      7.95000000	      4.71780206	     -3.36679985	     -0.35387570	      0.01891700	      0.93969347	      0.18439671	    -10.46623657	      8.37419305	      0.97742835	     -4.00245749	     14.79561173	     -0.00798039	      0.00000000	     13.81493151	     -2.11068731	     -0.96558334	    -13.86868735	      7.13346687	     -1.80905331	      0.00000000	    -22.84555599	      3.25230022	      5.02147544
      7.96000000	      4.70503058	     -3.63740574	     -0.57255615	      0.02739636	      0.93864677	      0.18383095	    -11.02571751	      8.55927033	      1.17458896	     -4.04784014	     15.10383639	      0.14411281	      0.00000000	     13.70843419	     -2.39109227	     -1.10607490	    -11.23924460	      6.90758216	     -1.64757878	      0.00000000	    -22.87596308	      3.48307750	      5.39414696
      7.97000000	      4.66978411	     -3.94240810	     -0.78378146	      0.03591946	      0.93753719	      0.18323524	    -11.56953265	      8.78049517	      1.37580024	     -4.08392466	     15.40440983	      0.26739210	      0.00000000	     13.64556764	     -2.71480461	     -1.44051642	     -8.80571817	      6.71391412	     -1.49038187	      0.00000000	    -22.86816420	      3.75561590	      5.78932191
